<svg width="138" height="30" viewBox="0 0 138 30" fill="none" xmlns="http://www.w3.org/2000/svg">
<rect x="1.9179" y="3.48181" width="18.9965" height="18.8317" rx="2.89082" fill="#33322E" stroke="#33322E" stroke-width="1.75963"/>
<rect x="0.879813" y="2.45224" width="18.9965" height="18.8317" rx="2.89082" fill="#DCF3B6" stroke="#33322E" stroke-width="1.75963"/>
<path d="M5.18896 12.0024C6.47753 12.3214 10.4208 14.3364 11.5805 17.016C12.8105 12.7095 17.6426 4.43622 25.9451 2.602" stroke="#33322E" stroke-width="2.35865" stroke-linecap="round" stroke-linejoin="round"/>
<path d="M38.9459 23.2264C36.8703 23.2264 35.1249 22.8019 33.7097 21.9528C32.2945 21.0848 31.2284 19.8866 30.5114 18.3582C29.7944 16.8298 29.4359 15.0561 29.4359 13.0371C29.4359 11.0181 29.8038 9.23493 30.5397 7.68765C31.2756 6.14038 32.3512 4.93275 33.7663 4.06477C35.1815 3.17792 36.9081 2.73449 38.9459 2.73449C40.4555 2.73449 41.7857 2.98923 42.9368 3.4987C44.0878 4.00816 45.0218 4.73463 45.7388 5.67809C46.4747 6.60268 46.9465 7.74426 47.154 9.10284H43.7293C43.4651 8.14051 42.9273 7.38575 42.116 6.83854C41.3046 6.29133 40.2479 6.01773 38.9459 6.01773C37.5307 6.01773 36.3892 6.34794 35.5212 7.00836C34.6532 7.66879 34.0211 8.5179 33.6248 9.5557C33.2474 10.5935 33.0587 11.7068 33.0587 12.8956C33.0587 14.122 33.2569 15.2731 33.6531 16.3486C34.0682 17.4242 34.7192 18.2921 35.6061 18.9526C36.4929 19.613 37.6345 19.9432 39.0308 19.9432C39.8988 19.9432 40.6536 19.8205 41.2951 19.5752C41.9556 19.3299 42.5028 18.9809 42.9368 18.528C43.3896 18.0563 43.701 17.5091 43.8708 16.8864H47.4654C47.2389 18.2261 46.7295 19.3677 45.937 20.3111C45.1633 21.2546 44.1727 21.9811 42.9651 22.4905C41.7763 22.9811 40.4366 23.2264 38.9459 23.2264ZM50.0959 23V2.98923H53.5489V10.0086C53.9452 9.4991 54.4075 9.08397 54.9358 8.7632C55.4641 8.44242 56.0208 8.21599 56.6057 8.08391C57.1907 7.93295 57.7473 7.85748 58.2756 7.85748C59.6908 7.85748 60.8041 8.16882 61.6155 8.7915C62.4269 9.41419 62.9929 10.2444 63.3137 11.2822C63.6534 12.32 63.8232 13.4899 63.8232 14.7919V23H60.3701V15.3863C60.3701 14.8768 60.3324 14.3579 60.2569 13.8296C60.1814 13.3012 60.0305 12.8295 59.804 12.4144C59.5965 11.9804 59.2757 11.6313 58.8417 11.3671C58.4266 11.103 57.87 10.9709 57.1718 10.9709C56.5114 10.9709 55.9453 11.1124 55.4736 11.3954C55.0018 11.6596 54.6245 12.0276 54.3414 12.4993C54.0773 12.971 53.8791 13.4899 53.747 14.056C53.615 14.6221 53.5489 15.1882 53.5489 15.7542V23H50.0959ZM73.7468 23.1981C72.1995 23.1981 70.8786 22.8774 69.7842 22.2358C68.7087 21.5942 67.8879 20.7074 67.3218 19.5752C66.7746 18.4242 66.501 17.0939 66.501 15.5844C66.501 14.0749 66.784 12.7446 67.3501 11.5936C67.935 10.4237 68.7653 9.50853 69.8408 8.84811C70.9352 8.18769 72.2467 7.85748 73.7751 7.85748C74.9072 7.85748 75.8978 8.06504 76.747 8.48016C77.5961 8.87641 78.3037 9.42362 78.8697 10.1218C79.4547 10.8199 79.8887 11.6124 80.1717 12.4993C80.4548 13.3861 80.5868 14.3202 80.568 15.3014C80.5491 15.5278 80.5302 15.7542 80.5114 15.9807C80.4925 16.1882 80.4642 16.4147 80.4264 16.66H69.954C70.0107 17.3204 70.1805 17.9242 70.4635 18.4714C70.7654 19.0186 71.1805 19.4526 71.7089 19.7734C72.2561 20.0941 72.9354 20.2545 73.7468 20.2545C74.2185 20.2545 74.6713 20.1979 75.1053 20.0847C75.5393 19.9526 75.9167 19.7639 76.2375 19.5186C76.5771 19.2733 76.8036 18.962 76.9168 18.5846H80.3698C80.1245 19.6602 79.6717 20.5376 79.0113 21.2169C78.3508 21.8962 77.5583 22.3962 76.6337 22.717C75.728 23.0377 74.7657 23.1981 73.7468 23.1981ZM70.0107 14.0843H77.1998C77.1998 13.4616 77.0583 12.8956 76.7753 12.3861C76.4922 11.8766 76.0865 11.4804 75.5582 11.1973C75.0487 10.8954 74.426 10.7445 73.6901 10.7445C72.8976 10.7445 72.2372 10.9049 71.7089 11.2256C71.1805 11.5464 70.7749 11.9615 70.4918 12.471C70.2088 12.9805 70.0484 13.5182 70.0107 14.0843ZM90.1625 23.1981C88.6152 23.1981 87.3133 22.8868 86.2566 22.2641C85.1999 21.6225 84.398 20.7263 83.8508 19.5752C83.3036 18.4242 83.03 17.0939 83.03 15.5844C83.03 14.0749 83.313 12.7446 83.8791 11.5936C84.4451 10.4237 85.2754 9.50853 86.3698 8.84811C87.4642 8.18769 88.7945 7.85748 90.3606 7.85748C91.5117 7.85748 92.5306 8.0556 93.4174 8.45186C94.3232 8.84811 95.0496 9.43305 95.5968 10.2067C96.1629 10.9615 96.5214 11.9049 96.6724 13.0371H93.2759C93.0495 12.32 92.6721 11.8011 92.1438 11.4804C91.6343 11.1407 91.0211 10.9709 90.304 10.9709C89.3417 10.9709 88.5775 11.2068 88.0114 11.6785C87.4642 12.1313 87.068 12.7069 86.8227 13.405C86.5774 14.1032 86.4547 14.8296 86.4547 15.5844C86.4547 16.3769 86.5868 17.1222 86.851 17.8204C87.1151 18.4997 87.5208 19.0469 88.068 19.462C88.6341 19.8771 89.3606 20.0847 90.2474 20.0847C90.9644 20.0847 91.606 19.9243 92.1721 19.6035C92.757 19.2828 93.1344 18.7639 93.3042 18.0468H96.8139C96.6818 19.1979 96.295 20.1602 95.6534 20.9338C95.0308 21.6886 94.2383 22.2547 93.2759 22.6321C92.3136 23.0094 91.2758 23.1981 90.1625 23.1981ZM99.4063 23V2.98923H102.859V14.056H105.01L108.945 8.08391H112.822L107.982 15.1882L113.219 23H109.199L105.209 17.0845H102.859V23H99.4063ZM114.857 23V2.98923H118.31V23H114.857ZM128.252 29.8212C127.101 29.8212 125.978 29.6608 124.884 29.34C123.808 29.0381 122.808 28.5192 121.883 27.7833L123.129 25.0096C123.77 25.519 124.487 25.9153 125.28 26.1983C126.072 26.5002 126.94 26.6512 127.884 26.6512C129.374 26.6512 130.459 26.2738 131.139 25.519C131.837 24.7643 132.186 23.7359 132.186 22.4339V21.3301C131.846 21.7641 131.431 22.1226 130.941 22.4056C130.45 22.6887 129.922 22.8962 129.356 23.0283C128.789 23.1604 128.214 23.2264 127.629 23.2264C126.176 23.2264 125.016 22.934 124.148 22.349C123.298 21.7452 122.685 20.9244 122.308 19.8866C121.93 18.8299 121.742 17.6317 121.742 16.292V8.08391H125.167V15.5278C125.167 16.0561 125.204 16.5939 125.28 17.1411C125.355 17.6883 125.506 18.1884 125.733 18.6412C125.959 19.0941 126.289 19.462 126.723 19.7451C127.176 20.0092 127.77 20.1413 128.506 20.1413C129.469 20.1413 130.214 19.9055 130.742 19.4337C131.271 18.962 131.629 18.3487 131.818 17.594C132.025 16.8392 132.129 16.0373 132.129 15.1882V8.08391H135.582V21.5848C135.582 22.849 135.45 23.9812 135.186 24.9813C134.922 26.0002 134.497 26.8682 133.912 27.5852C133.327 28.3022 132.573 28.8494 131.648 29.2268C130.724 29.6231 129.591 29.8212 128.252 29.8212Z" fill="#33322E"/>
</svg>
