<svg width="21" height="39" viewBox="0 0 21 39" fill="none" xmlns="http://www.w3.org/2000/svg">
<path d="M10.2734 1.5628C11.1508 12.7334 9.32703 23.8353 9.88667 35.0177C9.92868 35.8573 9.63557 35.7563 10.3716 35.1832C12.388 33.613 14.4387 31.9728 16.7174 30.6248C19.2056 29.1529 15.5639 31.7609 14.9941 32.3009C14.6623 32.6152 10.3436 37.0468 9.88461 36.6897C8.34138 35.4892 6.82389 34.0831 5.50318 32.7389C4.75086 31.9732 2.7814 28.306 1.8605 27.9264C1.6652 27.846 1.77221 28.2764 2.44704 28.3404C4.42815 28.5282 6.35848 28.7799 8.31885 29.112C9.59102 29.3275 17.6072 31.0552 17.1367 30.1629" stroke="#76ACEC" stroke-width="3" stroke-linecap="round"/>
</svg>
