<svg width="113" height="42" viewBox="0 0 113 42" fill="none" xmlns="http://www.w3.org/2000/svg">
<path d="M2.0497 25.809C36.3108 21.2409 71.1506 23.0605 105.541 19.2393C108.123 18.9524 107.897 19.6665 105.91 18.0582C100.468 13.6524 94.7986 9.18132 89.9658 4.10683C84.6886 -1.43419 93.8141 6.57401 95.6497 7.79768C96.7183 8.51009 111.677 17.7075 110.708 18.8702C107.451 22.7795 103.55 26.674 99.7834 30.0904C97.6377 32.0365 86.8826 37.503 85.9796 39.7604C85.7881 40.2392 87.0869 39.8905 87.0869 38.2841C87.0869 33.5683 87.2994 28.958 87.7512 24.2589C88.0445 21.2094 91.035 1.91132 88.4156 3.22103" stroke="#599BD6" stroke-width="3" stroke-linecap="round"/>
</svg>
