<svg width="39" height="20" viewBox="0 0 39 20" fill="none" xmlns="http://www.w3.org/2000/svg">
<path d="M2.0001 11.9737C13.0381 10.046 24.2625 10.8139 35.3422 9.20142C36.1741 9.08036 36.1012 9.38169 35.4611 8.70302C33.7077 6.84381 31.8813 4.9571 30.3243 2.81575C28.6241 0.477524 31.5641 3.85686 32.1555 4.37323C32.4997 4.67385 37.3191 8.555 37.007 9.04567C35.9574 10.6953 34.7008 12.3387 33.4872 13.7804C32.796 14.6016 29.331 16.9084 29.04 17.861C28.9783 18.063 29.3968 17.9159 29.3968 17.238C29.3968 15.248 29.4652 13.3025 29.6108 11.3196C29.7053 10.0328 30.6687 1.88928 29.8248 2.44195" stroke="#76ACEC" stroke-width="3" stroke-linecap="round"/>
</svg>
