<svg width="193" height="149" viewBox="0 0 193 149" fill="none" xmlns="http://www.w3.org/2000/svg">
<path d="M92.7057 1.55267C88.4665 3.34767 83.0001 9.59111 80.5458 15.5224C79.5417 17.7856 78.4261 22.9365 77.9799 26.8386L77.3105 33.9405L72.8482 28.0873C64.5928 17.1613 51.3172 9.90329 42.1693 11.3081C37.8185 12.0105 31.3481 17.1613 30.344 20.6732C28.5591 27.541 32.6868 36.8281 42.9502 48.6907C46.1855 52.5148 48.7513 55.7926 48.5282 55.9487C48.3051 56.1048 45.8508 55.4804 43.1734 54.7C36.2567 52.5148 24.2083 51.2661 17.0685 51.8904C2.23105 53.1391 -4.01628 61.4117 2.67728 70.8549C8.1437 78.5812 20.6384 84.4344 37.1491 87.0098C40.2728 87.4781 40.0497 87.7122 30.4556 91.1461C16.9569 96.0628 6.35875 103.243 3.79288 109.174C0.557655 116.978 4.90847 122.051 17.2916 124.549C28.6706 126.89 43.1734 123.846 53.8831 116.978C56.672 115.183 59.1264 113.857 59.461 114.091C59.6842 114.247 59.1264 116.12 58.1223 118.227C57.0067 120.724 56.3374 125.173 56.2258 130.324C56.1142 140.001 58.457 144.84 64.7043 147.493C75.3025 151.942 87.2393 146.244 92.3711 134.304C94.156 130.168 96.7219 118.383 96.8334 114.325C96.8334 113.857 100.069 118.071 104.085 123.69C112.006 134.85 118.141 140.469 124.946 142.889C136.214 146.869 146.701 140.313 147.928 128.685C149.043 117.525 144.023 110.111 127.624 98.7163L116.356 90.8339L139.784 90.912C161.426 90.912 163.769 90.7559 170.686 89.117C184.631 85.7611 192.886 79.7518 192.998 72.9621C193.221 63.2847 177.379 58.8363 154.956 62.3482C149.155 63.2067 144.246 63.831 144.023 63.753C143.912 63.5969 146.254 62.1921 149.266 60.5532C157.633 56.1048 168.231 47.7542 171.132 43.3838C174.59 38.1549 174.813 31.4432 171.467 27.3069C168.008 23.0145 162.319 21.0634 153.283 21.0634C143.354 21.0634 137.553 23.0926 129.409 29.258L122.938 34.1747L122.827 26.9947C122.492 8.34242 107.097 -4.61272 92.7057 1.55267Z" fill="#FFBDF2"/>
</svg>
