<svg width="149" height="115" viewBox="0 0 149 115" fill="none" xmlns="http://www.w3.org/2000/svg">
<path d="M71.5708 1.19837C68.298 2.58377 64.0778 7.40253 62.183 11.9804C61.4079 13.7272 60.5466 17.7026 60.2021 20.7144L59.6853 26.1957L56.2403 21.6781C49.867 13.2453 39.6179 7.64347 32.5556 8.7277C29.1967 9.26981 24.2013 13.2453 23.4262 15.9558C22.0482 21.2565 25.2349 28.4244 33.1585 37.5801C35.6561 40.5315 37.637 43.0614 37.4648 43.1819C37.2925 43.3023 35.3978 42.8205 33.3307 42.2181C27.9909 40.5315 18.6893 39.5678 13.1772 40.0497C1.72241 41.0134 -3.10065 47.3983 2.06692 54.6867C6.2871 60.6499 15.9332 65.1675 28.6799 67.1552C31.0914 67.5166 30.9192 67.6973 23.5123 70.3477C13.0911 74.1424 4.90908 79.684 2.92818 84.2618C0.430521 90.2853 3.78944 94.2006 13.3495 96.1281C22.1343 97.9351 33.3307 95.5859 41.5988 90.2853C43.752 88.8999 45.6468 87.8759 45.9051 88.0566C46.0774 88.1771 45.6468 89.6227 44.8716 91.2491C44.0104 93.1766 43.4936 96.6099 43.4075 100.585C43.3214 108.055 45.13 111.789 49.9531 113.837C58.1351 117.27 67.3506 112.873 71.3124 103.657C72.6904 100.465 74.6713 91.3695 74.7574 88.2373C74.7574 87.8759 77.2551 91.1286 80.3556 95.4655C86.4706 104.079 91.2075 108.416 96.4612 110.283C105.16 113.355 113.256 108.295 114.203 99.3205C115.064 90.7069 111.189 84.9847 98.5283 76.1904L89.8295 70.1067L107.916 70.167C124.624 70.167 126.433 70.0465 131.773 68.7816C142.539 66.1915 148.912 61.5534 148.998 56.313C149.17 48.8439 136.941 45.4106 119.629 48.1211C115.151 48.7837 111.361 49.2656 111.189 49.2053C111.103 49.0849 112.911 48.0006 115.237 46.7357C121.696 43.3023 129.878 36.8572 132.117 33.4841C134.787 29.4484 134.96 24.2682 132.376 21.0758C129.706 17.7629 125.313 16.257 118.337 16.257C110.672 16.257 106.193 17.8231 99.9063 22.5816L94.911 26.3764L94.8248 20.8348C94.5665 6.43878 82.681 -3.56016 71.5708 1.19837Z" fill="#DCF3B6"/>
</svg>
