<svg width="111" height="174" viewBox="0 0 111 174" fill="none" xmlns="http://www.w3.org/2000/svg">
<path d="M49.0329 71.967C49.0329 63.0564 49.2047 54.1242 48.6436 45.2265C48.0435 35.7095 46.5342 26.2307 46.2693 16.6955C46.1591 12.7272 47.1857 5.84076 44.5177 2.41057C42.7255 0.106238 46.0866 8.03564 46.9699 10.8181C49.5157 18.8372 52.1425 26.8801 56.0391 34.3668C60.0538 42.0805 64.8349 49.2554 68.6504 57.0982C71.6349 63.233 76.2696 68.0104 79.549 73.9132C82.0729 78.4562 83.6435 82.5888 87.5672 86.1352C88.7929 87.243 90.0007 90.9309 91.3428 91.4677C94.406 92.693 87.2936 86.2456 85.0372 83.8387C74.5297 72.6308 60.1366 64.8804 45.5687 60.7181C36.268 58.0608 28.2892 55.4162 18.5168 55.152C16.031 55.0848 18.0475 55.1922 19.3731 55.152C26.9305 54.923 34.6884 52.6243 42.0266 50.9483C54.2538 48.1557 68.0508 43.4461 78.6926 36.6244C82.3115 34.3046 92.44 26.8209 89.9416 30.3188C88.8487 31.8487 87.0392 32.8872 85.8546 34.4447C81.4852 40.1896 77.3941 46.2372 73.3212 52.1938C66.7431 61.8143 61.4842 72.1745 55.1828 81.9315C51.5902 87.4942 47.8864 92.8383 45.2184 98.9021C42.156 105.862 44.0909 90.8538 44.1674 89.1323C44.5734 79.9978 46.931 71.3681 46.931 62.1583" stroke="#FCFF61" stroke-width="3" stroke-linecap="round"/>
<path d="M9.79792 142.73C13.5427 139.396 16.5105 137.38 17.5048 132.337C18.4341 127.624 19.354 122.746 19.5677 117.936C19.6766 115.487 19.9423 112.61 19.2174 110.229C18.8583 109.049 18.2054 108.061 18.2054 109.84C18.2054 116.292 19.8044 122.591 21.7864 128.718C23.4231 133.776 26.2771 138.288 28.3645 143.158C30.2278 147.506 31.6885 152.171 34.6701 155.925C36.5298 158.267 38.8735 160.026 40.5086 162.581C40.5601 162.662 41.9488 165.598 41.9488 164.294C41.9488 160.173 37.2015 155.192 35.2929 151.799C30.9959 144.16 22.9226 139.847 14.7801 137.242C10.39 135.837 5.3129 137.125 0.728719 137.125C-2.35199 137.125 6.01687 137.125 6.60618 137.125C19.6799 137.125 31.5901 134.444 40.7811 124.202C41.8197 123.045 48.9174 111.692 44.6735 116.262C39.2236 122.131 33.604 128.626 28.7148 135.023C21.582 144.356 16.2647 153.226 11.8998 164.138C11.4126 165.356 7.21419 176.036 9.09729 170.054C12.0689 160.615 15.7949 150.405 16.6485 140.55C16.7538 139.334 17.4891 128.686 18.2054 130.119" stroke="#FCFF61" stroke-width="3" stroke-linecap="round"/>
<path d="M88.9683 124.514C91.4641 116.715 92.713 109.756 91.8098 101.627C91.6715 100.382 91.7708 102.535 91.7708 102.794C91.7708 104.544 92.6091 105.421 93.6002 106.843C97.4648 112.387 100.021 118.783 103.954 124.319C105.766 126.87 112.275 132.682 107.185 126.46C101.184 119.126 89.245 117.483 80.7165 119.882C78.8244 120.414 78.4989 120.835 80.1716 119.999C84.6412 117.764 89.1683 115.144 93.4445 112.564C94.3568 112.014 103.128 104.734 103.915 105.363C104.352 105.713 97.5909 116.739 97.2201 117.352C94.8749 121.231 91.7388 124.656 89.7079 128.718C89.537 129.059 88.1966 133.544 87.9174 133.544C87.3988 133.544 90.8875 121.071 91.0702 119.609" stroke="#FCFF61" stroke-width="3" stroke-linecap="round"/>
</svg>
