<svg width="89" height="117" viewBox="0 0 89 117" fill="none" xmlns="http://www.w3.org/2000/svg">
<path d="M27.2817 28.2857C27.5981 20.9307 27.6009 13.4874 26.6911 6.3879C26.4758 5.45006 26.2443 4.5214 25.9902 3.60696C25.2509 0.945396 26.0201 1.9526 26.3485 4.00506C26.4749 4.79457 26.5888 5.58906 26.6911 6.3879C27.5327 10.0523 28.1278 13.8569 28.8565 17.5004C29.5502 20.9688 30.2015 24.4197 31.0359 27.8285C33.2405 27.3624 35.4006 26.7886 37.4554 26.0595C43.0768 24.0648 49.0943 22.9565 54.5734 20.7648C55.7962 20.2757 52.8966 22.7992 51.9858 23.7505C47.5265 28.408 43.866 34.0675 39.7245 39.0373C38.555 40.4407 37.0417 42.1291 35.6 43.8873C36.1939 46.1643 36.8692 48.3928 37.8535 50.4228C39.8597 54.5608 41.0411 58.553 42.4315 62.923C42.7291 63.8582 44.481 67.5529 43.1083 65.1125C40.5657 60.5923 36.9983 56.1095 33.8725 51.9754C33.2285 51.1237 32.5529 50.2103 31.8439 49.2748C31.7278 49.5012 31.6207 49.7248 31.5238 49.9451C30.1927 52.9703 27.2373 56.5776 24.9154 59.0216C23.1527 60.8771 20.318 62.995 19.0236 65.1523C18.519 65.9932 16.7078 69.8888 17.5905 67.1428C19.6522 60.7286 21.7935 54.2632 23.6415 47.7954C24.205 45.823 24.4641 43.6616 24.8229 41.5564C23.5133 40.5041 22.1259 39.6392 20.6558 39.0771C18.4629 38.2387 16.2714 37.7335 14.3261 36.3303C12.5371 35.0399 11.4423 32.9374 9.46935 31.9114C7.27558 30.7707 0.206918 30.282 2.5027 29.3636C3.59875 28.9252 5.6769 29.774 6.76231 29.8812C10.6139 30.2616 14.5881 30.0494 18.4265 29.6423C21.2838 29.3393 24.2654 29.0054 27.2296 28.5299C27.246 28.4481 27.2633 28.3666 27.2817 28.2857Z" fill="#FFC2EF"/>
<path d="M26.3485 43.6552C27.1864 30.8784 28.3942 16.7902 26.3485 4.00506C26.0201 1.9526 25.2509 0.945396 25.9902 3.60696C27.2368 8.09441 27.9413 12.9244 28.8565 17.5004C30.0399 23.4175 31.1002 29.2839 33.1559 34.9768C34.9506 39.9467 35.5722 45.7178 37.8535 50.4228C39.8597 54.5608 41.0411 58.553 42.4315 62.923C42.7291 63.8582 44.481 67.5529 43.1083 65.1125C40.5657 60.5923 36.9983 56.1095 33.8725 51.9754C30.4458 47.4432 26.1219 41.1671 20.6558 39.0771C18.4629 38.2387 16.2714 37.7335 14.3261 36.3303C12.5371 35.0399 11.4423 32.9374 9.46935 31.9114C7.27558 30.7707 0.206918 30.282 2.5027 29.3636C3.59875 28.9252 5.6769 29.774 6.76231 29.8812C10.6139 30.2616 14.5881 30.0494 18.4265 29.6423C24.6686 28.9803 31.5038 28.1713 37.4554 26.0595C43.0768 24.0648 49.0943 22.9565 54.5734 20.7648C55.7962 20.2757 52.8966 22.7992 51.9858 23.7505C47.5265 28.408 43.866 34.0675 39.7245 39.0373C37.2 42.0668 33.0727 46.4248 31.5238 49.9451C30.1927 52.9703 27.2373 56.5776 24.9154 59.0216C23.1527 60.8771 20.318 62.995 19.0236 65.1523C18.519 65.9932 16.7078 69.8888 17.5905 67.1428C19.6522 60.7286 21.7935 54.2632 23.6415 47.7954C24.6811 44.1569 24.6846 39.8751 26.1893 36.4895C27.3817 33.8066 26.4819 30.0255 27.6224 27.1741C27.7879 26.7604 28.4982 18.8805 28.4982 22.8747" stroke="#FFC2EF" stroke-width="3" stroke-linecap="round"/>
<path d="M67.4971 77.4312C69.3504 69.3472 70.338 61.773 69.0244 53.3289C68.8949 52.4964 68.8054 50.9865 68.7446 49.605C68.6483 48.7454 68.6263 47.8848 68.6263 46.9992C68.6263 45.7276 68.6528 47.52 68.7446 49.605C68.8047 50.1415 68.8937 50.6776 69.0244 51.219C70.7184 58.2371 73.8153 64.7569 75.0755 71.9199C75.2758 73.0584 75.51 74.1601 75.7716 75.2347C79.0262 73.9752 81.8756 72.2565 85.1074 70.7256C87.541 69.5729 86.8738 70.0004 85.0278 71.6412C82.4003 73.9768 79.4603 76.0372 76.5592 78.1442C77.9292 82.7637 79.726 87.028 81.3653 91.8246C82.3773 94.7854 84.3909 98.8504 84.3909 102.016C84.3909 102.851 82.6842 97.273 81.445 95.5269C78.0755 90.779 74.0022 86.8521 69.049 84.2082C68.0345 85.187 67.0767 86.2195 66.198 87.3262C64.8006 89.0859 63.9613 91.2067 62.5753 92.9393C61.4723 94.318 59.6487 95.1352 58.7536 96.6814C58.2128 97.6155 56.2768 100.592 57.8778 97.9553C60.8082 93.1287 63.5993 88.1249 66.4766 83.2258C66.5141 83.162 66.5531 83.0985 66.5933 83.0355C65.63 82.6275 64.6361 82.2653 63.6104 81.9519C60.9442 81.1372 58.4954 79.8017 55.7679 79.1652C54.5335 78.8772 50.7184 78.7671 51.986 78.7671C57.1969 78.7671 62.3924 78.3902 67.4971 77.4312Z" fill="#FFC2EF"/>
<path d="M66.4766 81.6334C68.945 71.9141 70.5627 63.2181 69.0244 53.3289C68.6995 51.24 68.6263 44.8852 68.6263 46.9992C68.6263 48.4374 68.6843 49.8099 69.0244 51.219C70.7184 58.2371 73.8153 64.7569 75.0755 71.9199C76.3555 79.1961 79.0213 84.9662 81.3653 91.8246C82.3773 94.7854 84.3909 98.8504 84.3909 102.016C84.3909 102.851 82.6841 97.273 81.445 95.5269C76.915 89.1437 71.1126 84.2442 63.6104 81.9519C60.9442 81.1372 58.4954 79.8016 55.7679 79.1652C54.5335 78.8772 50.7184 78.7671 51.986 78.7671C59.1947 78.7671 66.374 78.0458 73.3238 76.0601C77.6682 74.8188 81.0928 72.6273 85.1074 70.7256C87.541 69.5729 86.8738 70.0004 85.0278 71.6412C78.9779 77.0189 71.2714 80.9373 66.198 87.3262C64.8006 89.0859 63.9613 91.2067 62.5753 92.9393C61.4723 94.318 59.6487 95.1352 58.7536 96.6814C58.2128 97.6155 56.2768 100.592 57.8778 97.9553C60.8082 93.1287 63.5993 88.1249 66.4766 83.2258C68.006 80.6217 71.9591 78.6671 68.6263 77.334" stroke="#FFC2EF" stroke-width="3" stroke-linecap="round"/>
<path d="M26.3486 106.713C27.5259 100.203 29.5296 92.7887 28.339 86.092C28.1241 84.8827 26.3473 82.4166 27.2244 84.4996C30.5892 92.491 31.2025 102.29 35.664 109.818C37.1425 112.313 33.2667 104.444 31.3646 102.255C28.9385 99.4623 25.1836 96.7883 21.3326 96.6813C20.8815 96.6688 16.9694 96.7332 18.7848 96.6813C24.1842 96.5271 29.7445 94.0852 34.1114 91.0284C34.5504 90.7211 37.7341 89.8168 37.7341 89.1972C37.7341 86.8244 34.7656 92.9137 33.5143 94.9297C30.4612 99.8486 27.2312 104.728 24.9154 109.938C24.2781 111.372 23.4127 112.56 22.8055 114.078C21.7322 116.761 25.2969 108.86 26.6671 106.315C28.8752 102.214 29.4555 97.1572 32.7977 93.815" stroke="#FFC2EF" stroke-width="3" stroke-linecap="round"/>
</svg>
