<svg width="73" height="114" viewBox="0 0 73 114" fill="none" xmlns="http://www.w3.org/2000/svg">
<path d="M31.9437 47.3111C31.9437 41.5409 32.0556 35.7567 31.6903 29.9948C31.2995 23.8318 30.3167 17.6936 30.1443 11.5189C30.0725 8.94913 30.7409 4.48969 29.0038 2.2684C27.8368 0.776185 30.0253 5.91103 30.6005 7.71285C32.2581 12.9058 33.9685 18.1142 36.5056 22.9623C39.1197 27.9575 42.2328 32.6038 44.7171 37.6825C46.6604 41.6553 49.6782 44.7489 51.8135 48.5714C53.4568 51.5133 54.4795 54.1895 57.0344 56.486C57.8324 57.2034 58.6188 59.5916 59.4927 59.9392C61.4873 60.7327 56.8562 56.5575 55.387 54.9989C48.5453 47.7409 39.1736 42.722 29.6881 40.0267C23.6322 38.3058 18.437 36.5933 12.0739 36.4222C10.4554 36.3787 11.7683 36.4482 12.6315 36.4222C17.5523 36.2739 22.6037 34.7853 27.3818 33.7C35.3432 31.8916 44.3268 28.8418 51.2559 24.4243C53.6122 22.9221 60.2072 18.0758 58.5803 20.3409C57.8688 21.3317 56.6905 22.0042 55.9192 23.0128C53.0742 26.733 50.4104 30.6492 47.7584 34.5066C43.4753 40.7365 40.051 47.4455 35.9481 53.7638C33.6088 57.3661 31.1972 60.8268 29.46 64.7535C27.466 69.2606 28.7259 59.5416 28.7757 58.4269C29.04 52.5116 30.5751 46.9233 30.5751 40.9593" stroke="#FCFF61" stroke-width="3" stroke-linecap="round"/>
<path d="M6.39704 93.1352C8.83534 90.976 10.7678 89.6705 11.4152 86.4053C12.0203 83.3532 12.6192 80.194 12.7584 77.0791C12.8293 75.4935 13.0023 73.6306 12.5303 72.0884C12.2965 71.3242 11.8714 70.6848 11.8714 71.8363C11.8714 76.0144 12.9125 80.094 14.203 84.0611C15.2687 87.3371 17.127 90.2585 18.4862 93.4125C19.6994 96.228 20.6505 99.2486 22.5919 101.68C23.8028 103.197 25.3289 104.336 26.3935 105.99C26.4271 106.042 27.3313 107.944 27.3313 107.099C27.3313 104.431 24.2402 101.206 22.9974 99.0082C20.1996 94.0613 14.9428 91.2685 9.64108 89.5812C6.78253 88.6715 3.47674 89.5056 0.491863 89.5056C-1.51407 89.5056 3.93511 89.5056 4.31882 89.5056C12.8315 89.5056 20.5865 87.7693 26.5709 81.1373C27.2472 80.3878 31.8687 73.0356 29.1054 75.9953C25.5568 79.7959 21.8978 84.0019 18.7143 88.1445C14.07 94.188 10.6077 99.9319 7.76562 106.998C7.4484 107.787 4.71471 114.703 5.94084 110.83C7.87573 104.717 10.3019 98.1051 10.8576 91.7237C10.9262 90.9363 11.4049 84.0408 11.8714 84.9686" stroke="#FCFF61" stroke-width="3" stroke-linecap="round"/>
<path d="M57.9469 81.3389C59.572 76.2883 60.3851 71.7821 59.797 66.5179C59.707 65.712 59.7717 67.106 59.7717 67.2741C59.7717 68.4069 60.3175 68.9746 60.9628 69.8955C63.4792 73.4861 65.1433 77.628 67.7044 81.2129C68.8842 82.8643 73.1225 86.6281 69.8079 82.5992C65.9009 77.85 58.127 76.7861 52.5739 78.3394C51.3419 78.684 51.13 78.9566 52.2191 78.415C55.1294 76.9678 58.0771 75.271 60.8615 73.6007C61.4554 73.2444 67.1669 68.5301 67.679 68.9376C67.9633 69.1638 63.5612 76.304 63.3198 76.701C61.7928 79.2127 59.7508 81.4308 58.4284 84.0611C58.3172 84.2824 57.4444 87.1866 57.2626 87.1866C56.9249 87.1866 59.1965 79.1094 59.3155 78.163" stroke="#FCFF61" stroke-width="3" stroke-linecap="round"/>
</svg>
