<svg width="42" height="65" viewBox="0 0 42 65" fill="none" xmlns="http://www.w3.org/2000/svg">
<path d="M18.0692 26.8966C18.0692 23.6967 18.1307 20.4891 17.93 17.2939C17.7154 13.8763 17.1756 10.4724 17.0808 7.04821C17.0414 5.62314 17.4086 3.15018 16.4544 1.91837C15.8133 1.09087 17.0155 3.93838 17.3314 4.93757C18.2419 7.8173 19.1814 10.7056 20.5751 13.3941C22.011 16.1641 23.721 18.7407 25.0856 21.5571C26.1531 23.7602 27.8107 25.4758 28.9836 27.5955C29.8863 29.2269 30.4481 30.711 31.8514 31.9845C32.2898 32.3823 32.7218 33.7067 33.2018 33.8995C34.2974 34.3395 31.7536 32.0242 30.9465 31.1598C27.1885 27.135 22.0406 24.3517 16.8302 22.857C13.5038 21.9028 10.6501 20.9531 7.15486 20.8582C6.26579 20.8341 6.98701 20.8726 7.46113 20.8582C10.1641 20.776 12.9388 19.9505 15.5634 19.3486C19.9366 18.3458 24.8712 16.6545 28.6774 14.2048C29.9717 13.3718 33.5943 10.6843 32.7006 11.9404C32.3098 12.4898 31.6626 12.8627 31.2389 13.4221C29.6762 15.4851 28.2129 17.6568 26.7562 19.7959C24.4035 23.2507 22.5226 26.9711 20.2688 30.4749C18.9839 32.4725 17.6592 34.3916 16.7049 36.5692C15.6097 39.0686 16.3017 33.679 16.3291 33.0608C16.4743 29.7805 17.3175 26.6815 17.3175 23.3742" stroke="#FCFF61" stroke-width="3" stroke-linecap="round"/>
<path d="M4.03631 52.3081C5.37566 51.1107 6.43714 50.3868 6.79275 48.5761C7.12515 46.8835 7.45413 45.1316 7.53059 43.4043C7.56951 42.525 7.66454 41.492 7.40529 40.6367C7.27684 40.213 7.04334 39.8584 7.04334 40.4969C7.04334 42.8139 7.61523 45.0762 8.32411 47.2762C8.90949 49.0928 9.93025 50.7128 10.6768 52.4619C11.3433 54.0232 11.8657 55.6983 12.9321 57.0466C13.5972 57.8876 14.4355 58.5193 15.0203 59.4368C15.0387 59.4657 15.5354 60.5202 15.5354 60.0518C15.5354 58.5721 13.8375 56.7835 13.1548 55.565C11.618 52.8217 8.73047 51.273 5.81825 50.3373C4.24806 49.8328 2.4322 50.2953 0.792625 50.2953C-0.309223 50.2953 2.68398 50.2953 2.89476 50.2953C7.57071 50.2953 11.8305 49.3325 15.1178 45.6547C15.4892 45.2391 18.0278 41.162 16.5099 42.8033C14.5607 44.9109 12.5508 47.2433 10.8021 49.5405C8.25102 52.8919 6.34923 56.0772 4.78807 59.9959C4.61382 60.4333 3.11222 64.2686 3.78573 62.1205C4.84855 58.7308 6.18121 55.0641 6.48648 51.5254C6.52415 51.0888 6.78712 47.2649 7.04334 47.7794" stroke="#FCFF61" stroke-width="3" stroke-linecap="round"/>
<path d="M32.3524 45.7666C33.245 42.9658 33.6917 40.4669 33.3686 37.5476C33.3192 37.1007 33.3547 37.8738 33.3547 37.967C33.3547 38.5952 33.6545 38.91 34.009 39.4207C35.3912 41.4118 36.3053 43.7087 37.7121 45.6967C38.3602 46.6125 40.6882 48.6997 38.8676 46.4654C36.7215 43.8318 32.4513 43.2418 29.401 44.1032C28.7243 44.2943 28.6079 44.4455 29.2061 44.1451C30.8047 43.3426 32.4239 42.4016 33.9533 41.4754C34.2796 41.2778 37.4169 38.6635 37.6982 38.8895C37.8544 39.0149 35.4363 42.9745 35.3037 43.1947C34.4649 44.5875 33.3432 45.8175 32.6169 47.2762C32.5558 47.3988 32.0764 49.0094 31.9765 49.0094C31.791 49.0094 33.0388 44.5302 33.1041 44.0054" stroke="#FCFF61" stroke-width="3" stroke-linecap="round"/>
</svg>
