<svg width="123" height="130" viewBox="0 0 123 130" fill="none" xmlns="http://www.w3.org/2000/svg">
<path d="M5.31093 28.2691C13.1549 23.5468 18.2945 16.5101 18.2945 6.91069C18.2945 5.59097 17.6099 2.39623 18.3307 4.91914C18.8018 6.56796 19.4795 8.81037 20.2498 10.4955C21.6087 13.4681 22.2419 16.7043 24.1605 19.4756C25.7953 21.8369 29.3182 22.6343 31.656 23.8932C33.7456 25.0184 35.0911 25.0605 37.1961 25.8123C37.6216 25.9643 37.963 26.0645 38.2317 26.1277C39.0962 25.8234 39.5846 26.4456 38.2317 26.1277C37.9132 26.2398 37.5435 26.4777 37.1961 26.9348C34.7064 30.2108 31.3969 32.9049 28.8678 36.277C26.6881 39.1833 26.5428 42.5546 25.79 46.0175C25.3205 48.1769 24.875 50.4312 24.8184 52.6464C24.8314 53.0748 24.8123 53.389 24.8123 53.1146C24.8123 52.9588 24.8144 52.8027 24.8184 52.6464C24.8066 52.2608 24.7688 51.7827 24.6675 51.5576C23.6517 49.3003 23.0151 47.0176 22.2052 44.6777C20.1793 38.8252 16.2756 35.1995 12.0664 30.9903C10.3736 29.2975 7.82422 28.5627 5.31093 28.2691Z" fill="#FCFF61"/>
<path d="M3.30356 29.3971C12.2664 24.697 18.2945 17.3067 18.2945 6.91069C18.2945 5.59097 17.6099 2.39623 18.3307 4.91914C18.8018 6.56796 19.4795 8.81037 20.2498 10.4955C21.6087 13.4681 22.2419 16.7043 24.1605 19.4756C25.7953 21.8369 29.3182 22.6343 31.656 23.8932C33.7456 25.0184 35.0911 25.0605 37.1961 25.8123C40.5531 27.0112 38.6736 24.9908 37.1961 26.9348C34.7064 30.2108 31.3969 32.9049 28.8678 36.277C26.6881 39.1833 26.5428 42.5546 25.79 46.0175C25.2874 48.3293 24.8123 50.7498 24.8123 53.1146C24.8123 53.6359 24.8814 52.0329 24.6675 51.5576C23.6517 49.3003 23.0151 47.0176 22.2052 44.6777C20.1793 38.8252 16.2756 35.1995 12.0664 30.9903C9.60659 28.5305 5.33827 28.0935 2 28.0935" stroke="#FCFF61" stroke-width="3" stroke-linecap="round"/>
<path d="M67.7095 63.915C71.5903 63.4421 73.6414 61.5062 76.3032 57.2787C77.7691 54.9505 79.7844 51.0516 80.1776 48.2987C80.4163 46.6282 81.0541 45.5208 81.4812 44.0259C81.5705 43.7133 81.6407 43.4569 81.6949 43.251C81.8357 42.4576 81.9677 42.2153 81.6949 43.251C81.6079 43.7419 81.5174 44.4439 81.5174 45.1846C81.5174 50.4518 83.4856 54.8293 87.0575 58.4012C88.5063 59.8501 90.4957 60.6735 92.2718 61.6601C92.6511 61.8709 96.9478 63.2123 96.8704 63.2896C96.4591 63.7009 94.4567 64.1102 93.7564 64.5932C91.3467 66.255 89.6756 68.4735 88.1801 70.9661C86.1776 74.3035 84.7763 78.275 84.7763 82.155C84.7763 83.1069 84.6522 84.0711 84.5007 85.0406C84.8704 88.6265 84.6681 93.8526 84.1607 91.5696C83.6829 89.4193 84.1608 87.2166 84.5007 85.0406C84.4106 84.1664 84.2865 83.3897 84.1245 82.843C82.9617 78.9184 81.5054 76.6633 79.7069 73.0663C78.0642 69.7808 76.4078 69.2602 74.0219 66.8744C72.6923 65.5448 70.163 64.5217 67.7095 63.915Z" fill="#FCFF61"/>
<path d="M63.2676 63.9414C70.3228 64.4576 72.7772 62.8787 76.3032 57.2787C77.7691 54.9505 79.7844 51.0516 80.1776 48.2987C80.4163 46.6282 81.0541 45.5208 81.4812 44.0259C82.2978 41.1679 81.5174 43.0087 81.5174 45.1846C81.5174 50.4518 83.4856 54.8293 87.0575 58.4012C88.5063 59.8501 90.4957 60.6735 92.2718 61.6601C92.6511 61.8709 96.9478 63.2123 96.8704 63.2896C96.4591 63.7009 94.4567 64.1102 93.7564 64.5932C91.3467 66.255 89.6756 68.4735 88.1801 70.9661C86.1776 74.3035 84.7763 78.275 84.7763 82.155C84.7763 85.2433 83.47 88.4613 84.1607 91.5696C84.7918 94.4092 84.9509 85.632 84.1245 82.843C82.9617 78.9184 81.5054 76.6633 79.7069 73.0663C78.0642 69.7808 76.4078 69.2602 74.0219 66.8744C71.8025 64.655 66.2404 63.2896 63.2676 63.2896" stroke="#FCFF61" stroke-width="3" stroke-linecap="round"/>
<path d="M99.5439 14.5539C103.227 12.0569 106.936 9.13954 108.095 4.62941C108.132 4.48665 108.167 4.32839 108.2 4.16237C108.218 3.89664 108.243 3.62985 108.276 3.36206C108.624 0.58194 108.495 2.68106 108.2 4.16237C107.872 9.15546 110.308 13.7742 113.31 17.665C114.445 19.1364 116.345 20.8253 118.162 21.4308C118.608 21.5794 122.028 21.5757 120.298 21.5757C115.858 21.5757 111.307 25.6634 109.544 29.5419C108.592 31.6363 107.617 33.4024 106.924 35.4679C106.749 36.926 106.515 38.2998 106.249 39.4996C105.812 41.466 106.3 37.786 106.43 37.2184C106.57 36.6049 106.737 36.0255 106.924 35.4679C107.423 31.3108 107.45 26.469 106.43 23.0241C105.56 20.0883 103.671 19.2165 102.085 16.7235C101.491 15.7906 100.573 15.0991 99.5439 14.5539Z" fill="#FCFF61"/>
<path d="M97.8118 15.7097C101.992 12.9383 106.753 9.85153 108.095 4.62941C108.46 3.21288 108.663 0.27035 108.276 3.36206C107.614 8.66178 110.148 13.5672 113.31 17.665C114.445 19.1364 116.345 20.8253 118.162 21.4308C118.608 21.5794 122.028 21.5757 120.298 21.5757C115.858 21.5757 111.307 25.6634 109.544 29.5419C108.335 32.2017 107.09 34.332 106.43 37.2184C106.3 37.786 105.812 41.466 106.249 39.4996C107.276 34.8789 107.808 27.6772 106.43 23.0241C105.56 20.0883 103.671 19.2165 102.085 16.7235C100.804 14.7115 98.0156 13.8223 95.8564 13.1025" stroke="#FCFF61" stroke-width="3" stroke-linecap="round"/>
<path d="M30.2459 108.709C33.1239 106.512 34.3035 104.05 36.0372 99.4272C36.7751 97.4594 38.3292 95.5442 38.4995 93.4163C38.5311 93.0211 39.3646 91.6452 39.0064 92.7646C38.1933 95.3056 37.8477 97.7689 37.8477 100.441C37.8477 105.937 40.0448 110.063 45.0173 112.68C45.1649 112.758 45.324 112.842 45.4865 112.928C45.6582 112.984 45.8278 113.058 45.9949 113.151C48.2821 114.421 46.776 113.611 45.4865 112.928C41.6194 111.665 36.6952 119.405 35.5665 121.914C35.2735 122.565 34.5919 124.814 34.1134 126.459C34.0158 126.874 33.9084 127.279 33.7922 127.671C33.3943 129.014 33.6644 128.003 34.1134 126.459C35.1373 122.11 35.0926 116.654 32.9593 112.861C32.5104 112.063 31.3591 109.882 30.2459 108.709Z" fill="#FCFF61"/>
<path d="M25.4639 111.521C32.2187 108.219 33.5643 106.022 36.0372 99.4272C36.7751 97.4594 38.3292 95.5442 38.4995 93.4163C38.5311 93.0211 39.3646 91.6452 39.0064 92.7646C38.1933 95.3056 37.8477 97.7689 37.8477 100.441C37.8477 105.937 40.0448 110.063 45.0173 112.68C46.3361 113.374 48.5704 114.582 45.9949 113.151C42.0641 110.967 36.7453 119.294 35.5665 121.914C34.9986 123.176 32.9704 130.445 33.7922 127.671C35.1268 123.167 35.2961 117.015 32.9593 112.861C32.1625 111.444 29.1525 105.67 28.071 108.914" stroke="#FCFF61" stroke-width="3" stroke-linecap="round"/>
</svg>
