<svg width="113" height="42" viewBox="0 0 113 42" fill="none" xmlns="http://www.w3.org/2000/svg">
<path d="M2.34609 25.809C36.6072 21.2409 71.447 23.0605 105.838 19.2393C108.419 18.9524 108.193 19.6665 106.207 18.0582C100.764 13.6524 95.095 9.18132 90.2621 4.10683C84.985 -1.43419 94.1105 6.57401 95.946 7.79768C97.0147 8.51009 111.974 17.7075 111.005 18.8702C107.747 22.7795 103.847 26.674 100.08 30.0904C97.9341 32.0365 87.179 37.503 86.276 39.7604C86.0845 40.2392 87.3833 39.8905 87.3833 38.2841C87.3833 33.5683 87.5958 28.958 88.0476 24.2589C88.3408 21.2094 91.3314 1.91132 88.712 3.22103" stroke="#599BD6" stroke-width="3" stroke-linecap="round"/>
</svg>
