<svg width="37" height="37" viewBox="0 0 37 37" fill="none" xmlns="http://www.w3.org/2000/svg">
    <circle cx="18.0498" cy="18.626" r="17" stroke="#33322E" stroke-width="2" />
    <g clip-path="url(#clip0_10_11518)">
        <path
            d="M23.0916 13.5842H23.1008M13.4666 9.45923H22.6333C25.1646 9.45923 27.2166 11.5113 27.2166 14.0426V23.2092C27.2166 25.7405 25.1646 27.7926 22.6333 27.7926H13.4666C10.9353 27.7926 8.8833 25.7405 8.8833 23.2092V14.0426C8.8833 11.5113 10.9353 9.45923 13.4666 9.45923ZM21.7166 18.0484C21.8298 18.8113 21.6995 19.5904 21.3442 20.275C20.989 20.9596 20.427 21.5147 19.7381 21.8614C19.0492 22.2082 18.2685 22.3289 17.5071 22.2063C16.7457 22.0838 16.0422 21.7243 15.4969 21.179C14.9516 20.6336 14.5921 19.9302 14.4695 19.1688C14.347 18.4073 14.4677 17.6266 14.8144 16.9377C15.1612 16.2488 15.7163 15.6868 16.4009 15.3316C17.0854 14.9764 17.8646 14.8461 18.6275 14.9592C19.4056 15.0746 20.1261 15.4372 20.6824 15.9935C21.2386 16.5498 21.6012 17.2702 21.7166 18.0484Z"
            stroke="#33322E" stroke-width="2" stroke-linecap="round" stroke-linejoin="round" />
    </g>
    <defs>
        <clipPath id="clip0_10_11518">
            <rect width="22" height="22" fill="white" transform="translate(7.0498 7.62598)" />
        </clipPath>
    </defs>
</svg>