<svg width="37" height="37" viewBox="0 0 37 37" fill="none" xmlns="http://www.w3.org/2000/svg">
    <circle cx="18.0498" cy="18.626" r="17" stroke="#33322E" stroke-width="2" />
    <g clip-path="url(#clip0_10_11524)">
        <path
            d="M27.7113 13.5111C27.6025 13.076 27.3807 12.6774 27.0684 12.3555C26.7562 12.0336 26.3645 11.7998 25.933 11.6777C24.3563 11.2927 18.0497 11.2927 18.0497 11.2927C18.0497 11.2927 11.743 11.2927 10.1663 11.7144C9.73482 11.8365 9.34316 12.0703 9.03091 12.3922C8.71867 12.7141 8.4969 13.1127 8.38801 13.5477C8.09946 15.1478 7.95831 16.771 7.96634 18.3969C7.95606 20.035 8.09721 21.6706 8.38801 23.2827C8.50806 23.7043 8.73479 24.0877 9.04631 24.396C9.35783 24.7043 9.7436 24.9271 10.1663 25.0427C11.743 25.4644 18.0497 25.4644 18.0497 25.4644C18.0497 25.4644 24.3563 25.4644 25.933 25.0427C26.3645 24.9206 26.7562 24.6868 27.0684 24.3649C27.3807 24.043 27.6025 23.6444 27.7113 23.2094C27.9977 21.6213 28.1388 20.0105 28.133 18.3969C28.1433 16.7588 28.0021 15.1232 27.7113 13.5111Z"
            stroke="#33322E" stroke-width="2" stroke-linecap="round" stroke-linejoin="round" />
        <path d="M15.9872 21.3944L21.258 18.3969L15.9872 15.3994V21.3944Z" stroke="#33322E"
            stroke-width="2" stroke-linecap="round" stroke-linejoin="round" />
    </g>
    <defs>
        <clipPath id="clip0_10_11524">
            <rect width="22" height="22" fill="white" transform="translate(7.0498 7.62598)" />
        </clipPath>
    </defs>
</svg>