<svg width="122" height="130" viewBox="0 0 122 130" fill="none" xmlns="http://www.w3.org/2000/svg">
<path d="M4.91933 28.1206C12.7633 23.3983 17.9029 16.3616 17.9029 6.76225C17.9029 5.44254 17.2183 2.2478 17.9391 4.7707C18.4102 6.41953 19.0879 8.66194 19.8582 10.347C21.2171 13.3197 21.8503 16.5558 23.7689 19.3271C25.4037 21.6885 28.9266 22.4859 31.2644 23.7447C33.354 24.8699 34.6995 24.9121 36.8045 25.6639C37.23 25.8158 37.5714 25.9161 37.8401 25.9792C38.7046 25.6749 39.193 26.2971 37.8401 25.9792C37.5215 26.0913 37.1519 26.3293 36.8045 26.7864C34.3148 30.0623 31.0053 32.7564 28.4762 36.1286C26.2965 39.0348 26.1512 42.4062 25.3984 45.869C24.9289 48.0284 24.4834 50.2828 24.4268 52.4979C24.4398 52.9264 24.4207 53.2406 24.4207 52.9662C24.4207 52.8103 24.4228 52.6542 24.4268 52.4979C24.415 52.1124 24.3772 51.6343 24.2759 51.4092C23.2601 49.1519 22.6235 46.8691 21.8136 44.5293C19.7877 38.6768 15.884 35.0511 11.6748 30.8419C9.98197 29.1491 7.43262 28.4143 4.91933 28.1206Z" fill="#FCFF61"/>
<path d="M2.91196 29.2487C11.8748 24.5486 17.9029 17.1583 17.9029 6.76225C17.9029 5.44254 17.2183 2.2478 17.9391 4.7707C18.4102 6.41953 19.0879 8.66194 19.8582 10.347C21.2171 13.3197 21.8503 16.5558 23.7689 19.3271C25.4037 21.6885 28.9266 22.4859 31.2644 23.7447C33.354 24.8699 34.6995 24.9121 36.8045 25.6639C40.1615 26.8628 38.282 24.8423 36.8045 26.7864C34.3148 30.0623 31.0053 32.7564 28.4762 36.1286C26.2965 39.0348 26.1512 42.4062 25.3984 45.869C24.8958 48.1808 24.4207 50.6014 24.4207 52.9662C24.4207 53.4874 24.4898 51.8845 24.2759 51.4092C23.2601 49.1519 22.6235 46.8691 21.8136 44.5293C19.7877 38.6768 15.884 35.0511 11.6748 30.8419C9.21499 28.3821 4.94667 27.9451 1.6084 27.9451" stroke="#FCFF61" stroke-width="3" stroke-linecap="round"/>
<path d="M67.3176 63.7666C71.1985 63.2937 73.2496 61.3578 75.9113 57.1303C77.3773 54.802 79.3925 50.9031 79.7858 48.1502C80.0244 46.4798 80.6622 45.3724 81.0894 43.8774C81.1787 43.5649 81.2489 43.3085 81.3031 43.1026C81.4438 42.3092 81.5758 42.0669 81.3031 43.1026C81.216 43.5935 81.1256 44.2954 81.1256 45.0362C81.1256 50.3034 83.0938 54.6809 86.6657 58.2528C88.1145 59.7016 90.1039 60.525 91.8799 61.5117C92.2592 61.7224 96.5559 63.0639 96.4786 63.1412C96.0673 63.5525 94.0648 63.9618 93.3645 64.4447C90.9549 66.1066 89.2837 68.3251 87.7882 70.8177C85.7858 74.1551 84.3845 78.1265 84.3845 82.0066C84.3845 82.9585 84.2604 83.9227 84.1089 84.8922C84.4786 88.4781 84.2762 93.7042 83.7689 91.4212C83.2911 89.2709 83.7689 87.0682 84.1089 84.8922C84.0188 84.018 83.8947 83.2412 83.7327 82.6946C82.5698 78.7699 81.1136 76.5148 79.3151 72.9179C77.6723 69.6324 76.016 69.1118 73.6301 66.726C72.3005 65.3963 69.7712 64.3732 67.3176 63.7666Z" fill="#FCFF61"/>
<path d="M62.8757 63.7929C69.931 64.3092 72.3854 62.7303 75.9113 57.1303C77.3773 54.802 79.3925 50.9031 79.7858 48.1502C80.0244 46.4798 80.6622 45.3724 81.0894 43.8774C81.9059 41.0194 81.1256 42.8602 81.1256 45.0362C81.1256 50.3034 83.0938 54.6809 86.6657 58.2528C88.1145 59.7016 90.1039 60.525 91.8799 61.5117C92.2592 61.7224 96.5559 63.0639 96.4786 63.1412C96.0673 63.5525 94.0648 63.9618 93.3645 64.4447C90.9549 66.1066 89.2837 68.3251 87.7882 70.8177C85.7858 74.1551 84.3845 78.1265 84.3845 82.0066C84.3845 85.0949 83.0782 88.3128 83.7689 91.4212C84.3999 94.2608 84.5591 85.4836 83.7327 82.6946C82.5698 78.7699 81.1136 76.5148 79.3151 72.9179C77.6723 69.6324 76.016 69.1118 73.6301 66.726C71.4107 64.5065 65.8486 63.1412 62.8757 63.1412" stroke="#FCFF61" stroke-width="3" stroke-linecap="round"/>
<path d="M99.1522 14.4055C102.835 11.9085 106.544 8.99111 107.704 4.48097C107.74 4.33821 107.775 4.17995 107.808 4.01393C107.826 3.7482 107.851 3.48141 107.885 3.21362C108.232 0.433502 108.103 2.53262 107.808 4.01393C107.48 9.00702 109.916 13.6258 112.918 17.5166C114.053 18.9879 115.953 20.6768 117.77 21.2824C118.216 21.431 121.636 21.4272 119.906 21.4272C115.467 21.4272 110.915 25.515 109.152 29.3934C108.2 31.4879 107.226 33.254 106.532 35.3195C106.357 36.7775 106.124 38.1514 105.857 39.3512C105.42 41.3175 105.908 37.6376 106.038 37.07C106.178 36.4564 106.345 35.8771 106.532 35.3195C107.032 31.1623 107.059 26.3206 106.038 22.8756C105.168 19.9399 103.279 19.0681 101.693 16.5751C101.099 15.6422 100.181 14.9507 99.1522 14.4055Z" fill="#FCFF61"/>
<path d="M97.4201 15.5612C101.601 12.7899 106.361 9.70309 107.704 4.48097C108.068 3.06444 108.271 0.121913 107.885 3.21362C107.222 8.51335 109.757 13.4187 112.918 17.5166C114.053 18.9879 115.953 20.6768 117.77 21.2824C118.216 21.431 121.636 21.4272 119.906 21.4272C115.467 21.4272 110.915 25.515 109.152 29.3934C107.943 32.0532 106.698 34.1835 106.038 37.07C105.908 37.6376 105.42 41.3175 105.857 39.3512C106.884 34.7305 107.417 27.5288 106.038 22.8756C105.168 19.9399 103.279 19.0681 101.693 16.5751C100.412 14.5631 97.6239 13.6738 95.4647 12.9541" stroke="#FCFF61" stroke-width="3" stroke-linecap="round"/>
<path d="M29.8546 108.561C32.7325 106.364 33.9121 103.902 35.6458 99.2788C36.3838 97.311 37.9379 95.3958 38.1081 93.2679C38.1397 92.8726 38.9733 91.4967 38.615 92.6161C37.8019 95.1571 37.4563 97.6204 37.4563 100.293C37.4563 105.789 39.6534 109.915 44.6259 112.532C44.7735 112.609 44.9326 112.693 45.0951 112.78C45.2668 112.836 45.4365 112.91 45.6036 113.002C47.8908 114.273 46.3847 113.463 45.0951 112.78C41.228 111.516 36.3038 119.257 35.1751 121.765C34.8821 122.416 34.2005 124.666 33.7221 126.311C33.6244 126.726 33.517 127.13 33.4008 127.523C33.003 128.865 33.2731 127.854 33.7221 126.311C34.7459 121.962 34.7012 116.505 32.568 112.713C32.119 111.915 30.9678 109.733 29.8546 108.561Z" fill="#FCFF61"/>
<path d="M25.0725 111.373C31.8273 108.071 33.1729 105.873 35.6458 99.2788C36.3838 97.311 37.9379 95.3958 38.1081 93.2679C38.1397 92.8726 38.9733 91.4967 38.615 92.6161C37.8019 95.1571 37.4563 97.6204 37.4563 100.293C37.4563 105.789 39.6534 109.915 44.6259 112.532C45.9448 113.226 48.1791 114.433 45.6036 113.002C41.6728 110.819 36.354 119.145 35.1751 121.765C34.6072 123.027 32.579 130.296 33.4008 127.523C34.7354 123.018 34.9047 116.867 32.568 112.713C31.7711 111.296 28.7612 105.521 27.6796 108.766" stroke="#FCFF61" stroke-width="3" stroke-linecap="round"/>
</svg>
