<svg width="51" height="63" viewBox="0 0 51 63" fill="none" xmlns="http://www.w3.org/2000/svg">
<path d="M31.7202 1.20984H11.6258C6.14438 1.20984 1.69379 5.16875 1.69379 10.0687V52.535C1.69379 57.4241 6.13226 61.3939 11.6258 61.3939H40.2818C45.7632 61.3939 50.2138 57.435 50.2138 52.535V17.7053L31.7202 1.20984Z" fill="white"/>
<path d="M40.2811 62.097H11.625C5.71919 62.097 0.904785 57.8136 0.904785 52.535V10.0687C0.916912 4.7902 5.71919 0.50679 11.625 0.50679H31.7073C31.9135 0.50679 32.1196 0.582507 32.2651 0.712307L50.7588 17.2078C50.9043 17.3376 50.9892 17.5214 50.9892 17.7053V52.535C51.0013 57.8028 46.199 62.097 40.2811 62.097ZM11.625 1.91296C6.59233 1.91296 2.48129 5.569 2.48129 10.0687V52.535C2.48129 57.024 6.58021 60.6908 11.625 60.6908H40.2811C45.3138 60.6908 49.4248 57.0348 49.4248 52.535V17.9974L31.392 1.91296H11.625Z" fill="black"/>
<path d="M31.7184 1.21001L50.2121 17.7055H35.6597C33.4769 17.7055 31.7184 16.1262 31.7184 14.19V1.21001Z" fill="#C6E7F9"/>
<path d="M50.2115 18.4087H35.6591C33.0518 18.4087 30.9296 16.5158 30.9296 14.1902V1.21018C30.9296 0.928941 31.1237 0.669341 31.4147 0.561174C31.7058 0.453007 32.0453 0.507091 32.2757 0.712608L50.733 17.1756C50.9028 17.3054 50.9998 17.4893 50.9998 17.7056C50.9998 18.095 50.6481 18.4087 50.2115 18.4087ZM32.5061 2.90839V14.1902C32.5061 15.7478 33.925 17.0025 35.6591 17.0025H48.3076L32.5061 2.90839Z" fill="black"/>
<circle cx="26" cy="32" r="13" fill="#DCF3B6"/>
<path d="M31.8432 33.592L26.9953 33.5574L26.9515 38.5252L24.4075 38.5071L24.4514 33.5393L19.6035 33.5048L19.6239 31.2008L24.4717 31.2354L24.5156 26.2676L27.0595 26.2857L27.0157 31.2535L31.8636 31.288L31.8432 33.592Z" fill="#33322E"/>
</svg>
