<svg width="10" height="11" viewBox="0 0 10 11" fill="none" xmlns="http://www.w3.org/2000/svg">
  <g clip-path="url(#clip0_1_2638)">
    <path d="M6.42869 1.81907C6.52706 1.70765 6.64383 1.61926 6.77235 1.55896C6.90087 1.49866 7.03861 1.46762 7.17772 1.46762C7.31682 1.46762 7.45457 1.49866 7.58308 1.55896C7.7116 1.61926 7.82837 1.70765 7.92674 1.81907C8.0251 1.9305 8.10313 2.06278 8.15636 2.20836C8.20959 2.35395 8.23699 2.50998 8.23699 2.66756C8.23699 2.82514 8.20959 2.98117 8.15636 3.12676C8.10313 3.27234 8.0251 3.40462 7.92674 3.51604L2.87084 9.24332L0.811035 9.87968L1.3728 7.54635L6.42869 1.81907Z" stroke="#33322E" stroke-width="2" stroke-linecap="round" stroke-linejoin="round"/>
  </g>
  <defs>
    <clipPath id="clip0_1_2638">
      <rect width="8.98826" height="10.1818" fill="white" transform="translate(0.0620117 0.546219)"/>
    </clipPath>
  </defs>
</svg>
