<svg width="12" height="14" viewBox="0 0 12 14" fill="none" xmlns="http://www.w3.org/2000/svg">
<path d="M8.5 1.75016C8.63132 1.59695 8.78722 1.47542 8.9588 1.3925C9.13038 1.30958 9.31428 1.26691 9.5 1.26691C9.68572 1.26691 9.86961 1.30958 10.0412 1.3925C10.2128 1.47542 10.3687 1.59695 10.5 1.75016C10.6313 1.90336 10.7355 2.08525 10.8066 2.28543C10.8776 2.4856 10.9142 2.70015 10.9142 2.91682C10.9142 3.13349 10.8776 3.34804 10.8066 3.54822C10.7355 3.74839 10.6313 3.93028 10.5 4.08349L3.75 11.9585L1 12.8335L1.75 9.62515L8.5 1.75016Z" stroke="#33322E" stroke-width="2" stroke-linecap="round" stroke-linejoin="round"/>
</svg>
