<svg width="13" height="13" viewBox="0 0 13 13" fill="none" xmlns="http://www.w3.org/2000/svg">
<g clip-path="url(#clip0_1_2642)">
<path d="M0.541504 2.16666V5.41666M0.541504 5.41666H3.7915M0.541504 5.41666L3.05484 3.055C3.80283 2.30827 4.77325 1.82486 5.81987 1.6776C6.86649 1.53035 7.93262 1.72723 8.85762 2.23858C9.78262 2.74993 10.5164 3.54805 10.9483 4.51268C11.3803 5.47731 11.4871 6.55619 11.2525 7.58678C11.018 8.61736 10.4549 9.54381 9.64807 10.2265C8.84123 10.9093 7.83437 11.3113 6.77918 11.372C5.724 11.4327 4.67766 11.1489 3.79782 10.5632C2.91798 9.9776 2.2523 9.12187 1.90109 8.125" stroke="#33322E" stroke-width="2" stroke-linecap="round" stroke-linejoin="round"/>
</g>
<defs>
<clipPath id="clip0_1_2642">
<rect width="13" height="13" fill="white"/>
</clipPath>
</defs>
</svg>
