<svg width="11" height="13" viewBox="0 0 11 13" fill="none" xmlns="http://www.w3.org/2000/svg">
<path d="M3.66667 1.2381V0H7.33333V1.2381H3.66667ZM4.88889 8.04762H6.11111V4.33333H4.88889V8.04762ZM5.5 13C4.7463 13 4.03588 12.853 3.36875 12.5589C2.70162 12.2649 2.11852 11.8651 1.61944 11.3595C1.12037 10.854 0.725694 10.2633 0.435417 9.5875C0.145139 8.91171 0 8.19206 0 7.42857C0 6.66508 0.145139 5.94544 0.435417 5.26964C0.725694 4.59385 1.12037 4.00317 1.61944 3.49762C2.11852 2.99206 2.70162 2.59226 3.36875 2.29821C4.03588 2.00417 4.7463 1.85714 5.5 1.85714C6.13148 1.85714 6.7375 1.96032 7.31806 2.16667C7.89861 2.37302 8.44352 2.67222 8.95278 3.06429L9.80833 2.19762L10.6639 3.06429L9.80833 3.93095C10.1954 4.44683 10.4907 4.99881 10.6944 5.58691C10.8981 6.175 11 6.78889 11 7.42857C11 8.19206 10.8549 8.91171 10.5646 9.5875C10.2743 10.2633 9.87963 10.854 9.38056 11.3595C8.88148 11.8651 8.29838 12.2649 7.63125 12.5589C6.96412 12.853 6.2537 13 5.5 13ZM5.5 11.7619C6.68148 11.7619 7.68981 11.3389 8.525 10.4929C9.36019 9.64683 9.77778 8.6254 9.77778 7.42857C9.77778 6.23175 9.36019 5.21032 8.525 4.36429C7.68981 3.51825 6.68148 3.09524 5.5 3.09524C4.31852 3.09524 3.31019 3.51825 2.475 4.36429C1.63981 5.21032 1.22222 6.23175 1.22222 7.42857C1.22222 8.6254 1.63981 9.64683 2.475 10.4929C3.31019 11.3389 4.31852 11.7619 5.5 11.7619Z" fill="#33322E"/>
</svg>
