<svg width="89" height="117" viewBox="0 0 89 117" fill="none" xmlns="http://www.w3.org/2000/svg">
<path d="M27.2817 28.2854C27.5981 20.9304 27.6009 13.4871 26.6911 6.38765C26.4758 5.44982 26.2443 4.52116 25.9902 3.60672C25.2509 0.945151 26.0201 1.95236 26.3485 4.00481C26.4749 4.79433 26.5888 5.58881 26.6911 6.38765C27.5327 10.0521 28.1278 13.8566 28.8565 17.5002C29.5502 20.9685 30.2015 24.4195 31.0359 27.8282C33.2405 27.3621 35.4006 26.7883 37.4554 26.0592C43.0768 24.0645 49.0943 22.9562 54.5734 20.7646C55.7962 20.2755 52.8966 22.799 51.9858 23.7503C47.5265 28.4077 43.866 34.0673 39.7245 39.0371C38.555 40.4404 37.0417 42.1288 35.6 43.887C36.1939 46.164 36.8692 48.3925 37.8535 50.4226C39.8597 54.5606 41.0411 58.5528 42.4315 62.9227C42.7291 63.8579 44.481 67.5527 43.1083 65.1122C40.5657 60.5921 36.9983 56.1093 33.8725 51.9751C33.2285 51.1234 32.5529 50.2101 31.8439 49.2746C31.7278 49.5009 31.6207 49.7245 31.5238 49.9449C30.1927 52.9701 27.2373 56.5773 24.9154 59.0214C23.1527 60.8769 20.318 62.9947 19.0236 65.1521C18.519 65.993 16.7078 69.8885 17.5905 67.1425C19.6522 60.7283 21.7935 54.263 23.6415 47.7952C24.205 45.8228 24.4641 43.6614 24.8229 41.5562C23.5133 40.5039 22.1259 39.639 20.6558 39.0769C18.4629 38.2385 16.2714 37.7332 14.3261 36.33C12.5371 35.0396 11.4423 32.9371 9.46935 31.9112C7.27558 30.7704 0.206918 30.2817 2.5027 29.3634C3.59875 28.925 5.6769 29.7737 6.76231 29.8809C10.6139 30.2613 14.5881 30.0492 18.4265 29.6421C21.2838 29.339 24.2654 29.0052 27.2296 28.5297C27.246 28.4478 27.2633 28.3664 27.2817 28.2854Z" fill="#FFC2EF"/>
<path d="M26.3485 43.655C27.1864 30.8781 28.3942 16.7899 26.3485 4.00481C26.0201 1.95236 25.2509 0.945151 25.9902 3.60672C27.2368 8.09416 27.9413 12.9241 28.8565 17.5002C30.0399 23.4173 31.1002 29.2836 33.1559 34.9765C34.9506 39.9464 35.5722 45.7176 37.8535 50.4226C39.8597 54.5606 41.0411 58.5528 42.4315 62.9227C42.7291 63.8579 44.481 67.5527 43.1083 65.1122C40.5657 60.5921 36.9983 56.1093 33.8725 51.9751C30.4458 47.443 26.1219 41.1669 20.6558 39.0769C18.4629 38.2385 16.2714 37.7332 14.3261 36.33C12.5371 35.0396 11.4423 32.9371 9.46935 31.9112C7.27558 30.7704 0.206918 30.2817 2.5027 29.3634C3.59875 28.925 5.6769 29.7737 6.76231 29.8809C10.6139 30.2613 14.5881 30.0492 18.4265 29.6421C24.6686 28.98 31.5038 28.1711 37.4554 26.0592C43.0768 24.0645 49.0943 22.9562 54.5734 20.7646C55.7962 20.2755 52.8966 22.799 51.9858 23.7503C47.5265 28.4077 43.866 34.0673 39.7245 39.0371C37.2 42.0665 33.0727 46.4245 31.5238 49.9449C30.1927 52.9701 27.2373 56.5773 24.9154 59.0214C23.1527 60.8769 20.318 62.9947 19.0236 65.1521C18.519 65.993 16.7078 69.8885 17.5905 67.1425C19.6522 60.7283 21.7935 54.263 23.6415 47.7952C24.6811 44.1566 24.6846 39.8749 26.1893 36.4893C27.3817 33.8064 26.4819 30.0253 27.6224 27.1739C27.7879 26.7602 28.4982 18.8803 28.4982 22.8745" stroke="#FFC2EF" stroke-width="3" stroke-linecap="round"/>
<path d="M67.4968 77.4311C69.3502 69.347 70.3377 61.7729 69.0242 53.3288C68.8947 52.4963 68.8052 50.9864 68.7444 49.6049C68.6481 48.7453 68.6261 47.8847 68.6261 46.9991C68.6261 45.7275 68.6526 47.5199 68.7444 49.6049C68.8045 50.1414 68.8935 50.6774 69.0242 51.2189C70.7182 58.2369 73.8151 64.7568 75.0752 71.9198C75.2755 73.0583 75.5097 74.1599 75.7713 75.2346C79.026 73.975 81.8754 72.2564 85.1072 70.7255C87.5408 69.5728 86.8736 70.0002 85.0276 71.6411C82.4 73.9767 79.46 76.037 76.559 78.144C77.929 82.7636 79.7258 87.0279 81.3651 91.8245C82.377 94.7853 84.3906 98.8503 84.3906 102.016C84.3906 102.851 82.6839 97.2729 81.4447 95.5268C78.0753 90.7789 74.002 86.852 69.0488 84.2081C68.0343 85.1869 67.0765 86.2194 66.1977 87.326C64.8003 89.0857 63.9611 91.2066 62.5751 92.9392C61.4721 94.3179 59.6485 95.1351 58.7534 96.6812C58.2125 97.6154 56.2766 100.592 57.8776 97.9551C60.808 93.1285 63.5991 88.1248 66.4764 83.2257C66.5139 83.1618 66.5528 83.0984 66.5931 83.0353C65.6298 82.6273 64.6358 82.2652 63.6101 81.9518C60.944 81.1371 58.4952 79.8015 55.7677 79.1651C54.5332 78.8771 50.7182 78.767 51.9858 78.767C57.1966 78.767 62.3922 78.3901 67.4968 77.4311Z" fill="#FFC2EF"/>
<path d="M66.4764 81.6333C68.9448 71.914 70.5625 63.218 69.0242 53.3288C68.6992 51.2399 68.6261 44.885 68.6261 46.9991C68.6261 48.4373 68.6841 49.8098 69.0242 51.2189C70.7182 58.2369 73.8151 64.7568 75.0752 71.9198C76.3553 79.196 79.0211 84.9661 81.3651 91.8245C82.377 94.7853 84.3906 98.8503 84.3906 102.016C84.3906 102.851 82.6839 97.2729 81.4447 95.5268C76.9147 89.1436 71.1124 84.2441 63.6101 81.9518C60.944 81.1371 58.4952 79.8015 55.7677 79.1651C54.5332 78.8771 50.7182 78.767 51.9858 78.767C59.1944 78.767 66.3738 78.0456 73.3236 76.06C77.668 74.8187 81.0925 72.6272 85.1072 70.7255C87.5408 69.5728 86.8736 70.0002 85.0276 71.6411C78.9777 77.0188 71.2712 80.9372 66.1977 87.326C64.8003 89.0857 63.9611 91.2066 62.5751 92.9392C61.4721 94.3179 59.6485 95.1351 58.7534 96.6812C58.2125 97.6154 56.2766 100.592 57.8776 97.9551C60.808 93.1285 63.5991 88.1248 66.4764 83.2257C68.0058 80.6215 71.9589 78.667 68.6261 77.3339" stroke="#FFC2EF" stroke-width="3" stroke-linecap="round"/>
<path d="M26.3486 106.713C27.5259 100.203 29.5296 92.7884 28.339 86.0918C28.1241 84.8824 26.3473 82.4164 27.2244 84.4994C30.5892 92.4908 31.2025 102.29 35.664 109.818C37.1425 112.313 33.2667 104.444 31.3646 102.254C28.9385 99.4621 25.1836 96.7881 21.3326 96.6811C20.8815 96.6685 16.9694 96.7329 18.7848 96.6811C24.1842 96.5268 29.7445 94.085 34.1114 91.0281C34.5504 90.7209 37.7341 89.8166 37.7341 89.1969C37.7341 86.8242 34.7656 92.9135 33.5143 94.9295C30.4612 99.8484 27.2312 104.727 24.9154 109.938C24.2781 111.372 23.4127 112.56 22.8055 114.078C21.7322 116.761 25.2969 108.86 26.6671 106.315C28.8752 102.214 29.4555 97.157 32.7977 93.8148" stroke="#FFC2EF" stroke-width="3" stroke-linecap="round"/>
</svg>
