<svg width="46" height="59" viewBox="0 0 46 59" fill="none" xmlns="http://www.w3.org/2000/svg">
<path d="M14.5712 14.7708C14.7282 11.179 14.7295 7.54418 14.2781 4.07723C14.1712 3.61925 14.0563 3.16575 13.9303 2.71919C13.5634 1.41944 13.9451 1.9113 14.1081 2.9136C14.1708 3.29915 14.2273 3.68713 14.2781 4.07723C14.6957 5.86672 14.9911 7.72462 15.3527 9.50393C15.6969 11.1977 16.0201 12.8829 16.4342 14.5475C17.5282 14.3199 18.6002 14.0397 19.6199 13.6836C22.4095 12.7095 25.3957 12.1683 28.1147 11.0981C28.7215 10.8592 27.2826 12.0915 26.8306 12.5561C24.6177 14.8305 22.8011 17.5943 20.7459 20.0213C20.1656 20.7066 19.4146 21.5311 18.6991 22.3897C18.9939 23.5016 19.329 24.5899 19.8174 25.5812C20.813 27.602 21.3993 29.5515 22.0893 31.6856C22.237 32.1423 23.1064 33.9465 22.4251 32.7548C21.1634 30.5474 19.3931 28.3583 17.8419 26.3394C17.5223 25.9235 17.187 25.4775 16.8352 25.0206C16.7775 25.1312 16.7244 25.2404 16.6763 25.348C16.0157 26.8253 14.5491 28.5868 13.3969 29.7804C12.5221 30.6865 11.1154 31.7207 10.4731 32.7742C10.2227 33.1849 9.32386 35.0872 9.76188 33.7463C10.785 30.614 11.8477 27.4567 12.7647 24.2982C13.0444 23.335 13.1729 22.2795 13.351 21.2514C12.7011 20.7375 12.0126 20.3152 11.2831 20.0407C10.1949 19.6312 9.10729 19.3845 8.14193 18.6993C7.25413 18.0691 6.71085 17.0424 5.73176 16.5414C4.6431 15.9843 1.13527 15.7457 2.27456 15.2972C2.81847 15.0831 3.84975 15.4976 4.38839 15.5499C6.29976 15.7357 8.27197 15.6321 10.1767 15.4333C11.5947 15.2853 13.0743 15.1223 14.5453 14.8901C14.5534 14.8501 14.562 14.8103 14.5712 14.7708Z" fill="#FFC2EF"/>
<path d="M14.1081 22.2764C14.5239 16.0369 15.1232 9.15709 14.1081 2.9136C13.9451 1.9113 13.5634 1.41944 13.9303 2.71919C14.5489 4.91059 14.8985 7.26925 15.3527 9.50393C15.94 12.3935 16.4661 15.2583 17.4863 18.0383C18.3769 20.4653 18.6854 23.2836 19.8174 25.5812C20.813 27.602 21.3993 29.5516 22.0893 31.6856C22.237 32.1423 23.1064 33.9465 22.4251 32.7548C21.1634 30.5474 19.3931 28.3583 17.8419 26.3394C16.1413 24.1262 13.9956 21.0613 11.2831 20.0407C10.1949 19.6312 9.10729 19.3845 8.14193 18.6993C7.25413 18.0691 6.71085 17.0424 5.73176 16.5414C4.6431 15.9843 1.13527 15.7457 2.27456 15.2972C2.81847 15.0831 3.84975 15.4976 4.38839 15.5499C6.29976 15.7357 8.27197 15.6321 10.1767 15.4333C13.2744 15.11 16.6664 14.7149 19.6199 13.6836C22.4095 12.7095 25.3957 12.1683 28.1147 11.0981C28.7215 10.8592 27.2826 12.0915 26.8306 12.5561C24.6177 14.8305 22.8011 17.5943 20.7459 20.0213C19.4931 21.5006 17.445 23.6288 16.6763 25.348C16.0157 26.8253 14.5491 28.5868 13.3969 29.7804C12.5221 30.6865 11.1154 31.7207 10.4731 32.7742C10.2227 33.1849 9.32386 35.0872 9.76188 33.7463C10.785 30.6139 11.8477 27.4567 12.7647 24.2982C13.2806 22.5213 13.2823 20.4304 14.0291 18.7771C14.6208 17.4669 14.1743 15.6204 14.7403 14.228C14.8224 14.0259 15.1749 10.1779 15.1749 12.1284" stroke="#FFC2EF" stroke-width="3" stroke-linecap="round"/>
<path d="M34.5278 38.7705C35.4475 34.8228 35.9376 31.124 35.2858 27.0004C35.2215 26.5939 35.1771 25.8565 35.1469 25.1819C35.0991 24.7621 35.0882 24.3418 35.0882 23.9094C35.0882 23.2884 35.1013 24.1637 35.1469 25.1819C35.1767 25.4439 35.2209 25.7056 35.2858 25.9701C36.1264 29.3972 37.6632 32.5812 38.2886 36.0791C38.388 36.6351 38.5042 37.1731 38.6341 37.6979C40.2492 37.0828 41.6632 36.2435 43.267 35.4959C44.4747 34.933 44.1436 35.1417 43.2275 35.943C41.9236 37.0836 40.4646 38.0897 39.0249 39.1187C39.7048 41.3746 40.5964 43.457 41.41 45.7994C41.9121 47.2452 42.9114 49.2304 42.9114 50.7762C42.9114 51.1841 42.0644 48.4601 41.4495 47.6074C39.7774 45.2888 37.756 43.3711 35.298 42.08C34.7945 42.558 34.3192 43.0622 33.8831 43.6026C33.1897 44.4619 32.7732 45.4977 32.0854 46.3437C31.538 47.017 30.6331 47.4161 30.1889 48.1711C29.9205 48.6273 28.9597 50.0809 29.7542 48.7932C31.2085 46.4362 32.5936 43.9927 34.0214 41.6002C34.04 41.5691 34.0594 41.5381 34.0793 41.5073C33.6013 41.308 33.108 41.1312 32.599 40.9781C31.2759 40.5803 30.0607 39.9281 28.7072 39.6173C28.0946 39.4766 26.2014 39.4229 26.8304 39.4229C29.4163 39.4229 31.9946 39.2388 34.5278 38.7705Z" fill="#FFC2EF"/>
<path d="M34.0214 40.8226C35.2464 36.0763 36.0492 31.8297 35.2858 27.0004C35.1245 25.9803 35.0882 22.877 35.0882 23.9094C35.0882 24.6117 35.117 25.2819 35.2858 25.9701C36.1264 29.3972 37.6632 32.5812 38.2886 36.0791C38.9238 39.6324 40.2468 42.4502 41.41 45.7994C41.9121 47.2452 42.9114 49.2304 42.9114 50.7762C42.9114 51.1841 42.0644 48.4601 41.4495 47.6074C39.2015 44.4902 36.322 42.0976 32.599 40.9781C31.2759 40.5803 30.0607 39.9281 28.7072 39.6173C28.0946 39.4766 26.2014 39.4229 26.8304 39.4229C30.4077 39.4229 33.9705 39.0706 37.4194 38.1009C39.5753 37.4948 41.2747 36.4246 43.267 35.4959C44.4747 34.933 44.1436 35.1417 43.2275 35.943C40.2252 38.5692 36.4009 40.4827 33.8831 43.6026C33.1897 44.4619 32.7732 45.4977 32.0854 46.3437C31.538 47.017 30.6331 47.4161 30.1889 48.1711C29.9205 48.6273 28.9597 50.0809 29.7542 48.7932C31.2085 46.4362 32.5936 43.9927 34.0214 41.6002C34.7804 40.3285 36.7421 39.3741 35.0882 38.723" stroke="#FFC2EF" stroke-width="3" stroke-linecap="round"/>
<path d="M14.1083 53.0702C14.6925 49.891 15.6868 46.2702 15.096 43C14.9893 42.4094 14.1076 41.2051 14.5429 42.2223C16.2127 46.1248 16.517 50.91 18.731 54.5865C19.4647 55.8049 17.5414 51.9619 16.5974 50.8928C15.3935 49.5292 13.5301 48.2234 11.6191 48.1711C11.3952 48.165 9.45384 48.1965 10.3547 48.1711C13.0342 48.0958 15.7935 46.9033 17.9606 45.4106C18.1784 45.2605 19.7583 44.8189 19.7583 44.5163C19.7583 43.3576 18.2852 46.3313 17.6642 47.3158C16.1491 49.7179 14.5462 52.1004 13.3971 54.6448C13.0808 55.3451 12.6513 55.9254 12.35 56.6666C11.8174 57.977 13.5863 54.1184 14.2663 52.8757C15.3621 50.8731 15.6501 48.4035 17.3086 46.7714" stroke="#FFC2EF" stroke-width="3" stroke-linecap="round"/>
</svg>
