<svg width="123" height="130" viewBox="0 0 123 130" fill="none" xmlns="http://www.w3.org/2000/svg">
<path d="M5.36073 27.972C13.2047 23.2496 18.3443 16.2129 18.3443 6.61357C18.3443 5.29385 17.6597 2.09911 18.3805 4.62202C18.8516 6.27084 19.5293 8.51325 20.2996 10.1984C21.6586 13.171 22.2917 16.4072 24.2103 19.1784C25.8451 21.5398 29.368 22.3372 31.7058 23.5961C33.7954 24.7212 35.1409 24.7634 37.2459 25.5152C37.6714 25.6671 38.0128 25.7674 38.2815 25.8305C39.146 25.5262 39.6344 26.1485 38.2815 25.8305C37.963 25.9427 37.5933 26.1806 37.2459 26.6377C34.7562 29.9137 31.4467 32.6077 28.9176 35.9799C26.7379 38.8861 26.5926 42.2575 25.8398 45.7204C25.3703 47.8798 24.9248 50.1341 24.8682 52.3492C24.8812 52.7777 24.8621 53.0919 24.8621 52.8175C24.8621 52.6616 24.8642 52.5055 24.8682 52.3492C24.8564 51.9637 24.8186 51.4856 24.7173 51.2605C23.7015 49.0032 23.0649 46.7205 22.255 44.3806C20.2291 38.5281 16.3254 34.9024 12.1162 30.6932C10.4234 29.0004 7.87402 28.2656 5.36073 27.972Z" fill="#FCFF61"/>
<path d="M3.35336 29.1C12.3162 24.3999 18.3443 17.0096 18.3443 6.61357C18.3443 5.29385 17.6597 2.09911 18.3805 4.62202C18.8516 6.27084 19.5293 8.51325 20.2996 10.1984C21.6586 13.171 22.2917 16.4072 24.2103 19.1784C25.8451 21.5398 29.368 22.3372 31.7058 23.5961C33.7954 24.7212 35.1409 24.7634 37.2459 25.5152C40.6029 26.7141 38.7234 24.6936 37.2459 26.6377C34.7562 29.9137 31.4467 32.6077 28.9176 35.9799C26.7379 38.8861 26.5926 42.2575 25.8398 45.7204C25.3372 48.0321 24.8621 50.4527 24.8621 52.8175C24.8621 53.3388 24.9312 51.7358 24.7173 51.2605C23.7015 49.0032 23.0649 46.7205 22.255 44.3806C20.2291 38.5281 16.3254 34.9024 12.1162 30.6932C9.65639 28.2334 5.38807 27.7964 2.0498 27.7964" stroke="#FCFF61" stroke-width="3" stroke-linecap="round"/>
<path d="M67.7591 63.618C71.6399 63.1451 73.691 61.2092 76.3527 56.9817C77.8187 54.6535 79.8339 50.7546 80.2272 48.0017C80.4658 46.3312 81.1036 45.2238 81.5308 43.7289C81.6201 43.4163 81.6903 43.1599 81.7445 42.954C81.8852 42.1606 82.0172 41.9183 81.7445 42.954C81.6574 43.445 81.567 44.1469 81.567 44.8876C81.567 50.1548 83.5352 54.5323 87.1071 58.1043C88.5559 59.5531 90.5453 60.3765 92.3213 61.3632C92.7006 61.5739 96.9973 62.9153 96.92 62.9926C96.5087 63.4039 94.5062 63.8132 93.806 64.2962C91.3963 65.958 89.7252 68.1766 88.2296 70.6691C86.2272 74.0065 84.8259 77.978 84.8259 81.858C84.8259 82.8099 84.7018 83.7741 84.5503 84.7436C84.92 88.3295 84.7176 93.5557 84.2103 91.2726C83.7325 89.1223 84.2103 86.9196 84.5503 84.7436C84.4602 83.8694 84.3361 83.0927 84.1741 82.546C83.0112 78.6214 81.555 76.3663 79.7565 72.7693C78.1137 69.4838 76.4574 68.9633 74.0715 66.5774C72.7419 65.2478 70.2126 64.2247 67.7591 63.618Z" fill="#FCFF61"/>
<path d="M63.3171 63.6444C70.3724 64.1606 72.8268 62.5817 76.3527 56.9817C77.8187 54.6535 79.8339 50.7546 80.2272 48.0017C80.4658 46.3312 81.1036 45.2238 81.5308 43.7289C82.3473 40.8709 81.567 42.7117 81.567 44.8876C81.567 50.1548 83.5352 54.5323 87.1071 58.1043C88.5559 59.5531 90.5453 60.3765 92.3213 61.3632C92.7006 61.5739 96.9973 62.9153 96.92 62.9926C96.5087 63.4039 94.5062 63.8132 93.806 64.2962C91.3963 65.958 89.7252 68.1766 88.2296 70.6691C86.2272 74.0065 84.8259 77.978 84.8259 81.858C84.8259 84.9463 83.5196 88.1643 84.2103 91.2726C84.8413 94.1122 85.0005 85.335 84.1741 82.546C83.0112 78.6214 81.555 76.3663 79.7565 72.7693C78.1137 69.4838 76.4574 68.9633 74.0715 66.5774C71.8521 64.358 66.29 62.9926 63.3171 62.9926" stroke="#FCFF61" stroke-width="3" stroke-linecap="round"/>
<path d="M99.5936 14.2568C103.276 11.7598 106.985 8.84243 108.145 4.33229C108.182 4.18953 108.217 4.03127 108.25 3.86525C108.267 3.59952 108.293 3.33273 108.326 3.06494C108.674 0.284821 108.544 2.38394 108.25 3.86525C107.921 8.85834 110.358 13.4771 113.359 17.3679C114.494 18.8393 116.395 20.5282 118.211 21.1337C118.657 21.2823 122.077 21.2786 120.348 21.2786C115.908 21.2786 111.356 25.3663 109.594 29.2448C108.641 31.3392 107.667 33.1053 106.974 35.1708C106.798 36.6289 106.565 38.0027 106.298 39.2025C105.861 41.1688 106.35 37.4889 106.479 36.9213C106.62 36.3077 106.786 35.7284 106.974 35.1708C107.473 31.0137 107.5 26.1719 106.479 22.727C105.61 19.7912 103.721 18.9194 102.134 16.4264C101.541 15.4935 100.623 14.802 99.5936 14.2568Z" fill="#FCFF61"/>
<path d="M97.8615 15.4125C102.042 12.6412 106.802 9.55441 108.145 4.33229C108.509 2.91576 108.713 -0.0267687 108.326 3.06494C107.664 8.36467 110.198 13.2701 113.359 17.3679C114.494 18.8393 116.395 20.5282 118.211 21.1337C118.657 21.2823 122.077 21.2786 120.348 21.2786C115.908 21.2786 111.356 25.3663 109.594 29.2448C108.385 31.9046 107.139 34.0348 106.479 36.9213C106.35 37.4889 105.861 41.1688 106.298 39.2025C107.325 34.5818 107.858 27.3801 106.479 22.727C105.61 19.7912 103.721 18.9194 102.134 16.4264C100.854 14.4144 98.0653 13.5251 95.9061 12.8054" stroke="#FCFF61" stroke-width="3" stroke-linecap="round"/>
<path d="M30.296 108.412C33.1739 106.215 34.3535 103.753 36.0872 99.13C36.8252 97.1622 38.3793 95.247 38.5495 93.1191C38.5811 92.7238 39.4147 91.3479 39.0565 92.4673C38.2433 95.0083 37.8977 97.4716 37.8977 100.144C37.8977 105.64 40.0948 109.766 45.0673 112.383C45.2149 112.461 45.374 112.545 45.5365 112.631C45.7083 112.687 45.8779 112.761 46.045 112.854C48.3322 114.124 46.8261 113.314 45.5365 112.631C41.6694 111.367 36.7452 119.108 35.6165 121.616C35.3235 122.267 34.6419 124.517 34.1635 126.162C34.0658 126.577 33.9584 126.981 33.8422 127.374C33.4444 128.716 33.7145 127.706 34.1635 126.162C35.1873 121.813 35.1426 116.356 33.0094 112.564C32.5605 111.766 31.4092 109.584 30.296 108.412Z" fill="#FCFF61"/>
<path d="M25.5139 111.224C32.2687 107.922 33.6143 105.724 36.0872 99.13C36.8252 97.1622 38.3793 95.247 38.5495 93.1191C38.5811 92.7238 39.4147 91.3479 39.0565 92.4673C38.2433 95.0083 37.8977 97.4716 37.8977 100.144C37.8977 105.64 40.0948 109.766 45.0673 112.383C46.3862 113.077 48.6205 114.284 46.045 112.854C42.1142 110.67 36.7954 118.997 35.6165 121.616C35.0486 122.878 33.0204 130.147 33.8422 127.374C35.1768 122.869 35.3461 116.718 33.0094 112.564C32.2125 111.147 29.2026 105.372 28.121 108.617" stroke="#FCFF61" stroke-width="3" stroke-linecap="round"/>
</svg>
