<svg width="26" height="26" viewBox="-5 -2 28 28" fill="none" xmlns="http://www.w3.org/2000/svg">
<path d="M7.99588 15.1546L6.37938 13.5381C6.26392 13.4227 6.13883 13.3361 6.00412 13.2783C5.86942 13.2206 5.7299 13.1918 5.58557 13.1918C5.44124 13.1918 5.29691 13.2206 5.15258 13.2783C5.00825 13.3361 4.87835 13.4227 4.76289 13.5381C4.53196 13.7691 4.41649 14.0433 4.41649 14.3608C4.41649 14.6783 4.53196 14.9526 4.76289 15.1835L7.21649 17.666C7.33196 17.7814 7.45704 17.8632 7.59175 17.9113C7.72646 17.9594 7.87079 17.9835 8.02474 17.9835C8.17869 17.9835 8.32302 17.9594 8.45773 17.9113C8.59244 17.8632 8.71753 17.7814 8.83299 17.666L13.7113 12.7876C13.9423 12.5567 14.0577 12.2777 14.0577 11.9505C14.0577 11.6234 13.9423 11.3443 13.7113 11.1134C13.4804 10.8825 13.2014 10.767 12.8742 10.767C12.5471 10.767 12.268 10.8825 12.0371 11.1134L7.99588 15.1546ZM2.30928 23.0928C1.67423 23.0928 1.13058 22.8667 0.678351 22.4144C0.226117 21.9622 0 21.4186 0 20.7835V2.30928C0 1.67423 0.226117 1.13058 0.678351 0.678351C1.13058 0.226117 1.67423 0 2.30928 0H10.5938C10.9017 0 11.1952 0.057732 11.4742 0.173196C11.7533 0.28866 11.9986 0.452234 12.2103 0.663917L17.8103 6.26392C18.022 6.4756 18.1856 6.72096 18.301 7C18.4165 7.27904 18.4742 7.57251 18.4742 7.88041V20.7835C18.4742 21.4186 18.2481 21.9622 17.7959 22.4144C17.3436 22.8667 16.8 23.0928 16.1649 23.0928H2.30928ZM10.3918 6.92783V2.30928H2.30928V20.7835H16.1649V8.08247H11.5464C11.2192 8.08247 10.945 7.97182 10.7237 7.75051C10.5024 7.52921 10.3918 7.25498 10.3918 6.92783Z" fill="currentColor"/>
</svg>
